<svg fill="#000000" xmlns="http://www.w3.org/2000/svg"  viewBox="0 0 24 24" width="24px" height="24px"><path d="M 6.75 3 C 4.6911411 3 3 4.6911411 3 6.75 L 3 17.25 C 3 19.308859 4.6911411 21 6.75 21 L 17.25 21 C 19.308859 21 21 19.308859 21 17.25 L 21 6.75 C 21 4.6911411 19.308859 3 17.25 3 L 6.75 3 z M 6.75 5 L 17.25 5 C 18.225141 5 19 5.7748589 19 6.75 L 19 17.25 C 19 18.225141 18.225141 19 17.25 19 L 6.75 19 C 5.7748589 19 5 18.225141 5 17.25 L 5 6.75 C 5 5.7748589 5.7748589 5 6.75 5 z M 12.75 8 A 0.750075 0.750075 0 1 0 12.75 9.5 L 13.4375 9.5 L 11.9375 11 L 9.5 11 C 8.672 11 8 11.672 8 12.5 L 8 14.5 C 8 15.328 8.672 16 9.5 16 L 11.5 16 C 12.328 16 13 15.328 13 14.5 L 13 12.0625 L 14.5 10.5625 L 14.5 11.25 A 0.750075 0.750075 0 1 0 16 11.25 L 16 8.75 A 0.750075 0.750075 0 0 0 15.25 8 L 12.75 8 z"/></svg>